<?xml version="1.0" encoding="UTF-8"?>
<svg xmlns="http://www.w3.org/2000/svg" xmlns:xlink="http://www.w3.org/1999/xlink" width="48pt" height="48pt" viewBox="0 0 48 48" version="1.1">
<g id="surface17336665">
<path style=" stroke:none;fill-rule:nonzero;fill:rgb(90.980393%,58.039218%,9.803922%);fill-opacity:1;" d="M 3 22 L 45 22 L 45 42 L 3 42 Z M 3 22 "/>
<path style=" stroke:none;fill-rule:nonzero;fill:rgb(77.64706%,15.686275%,15.686275%);fill-opacity:1;" d="M 31 3 L 31 7 L 28.800781 7 C 26.398438 7 27.601562 6 24 6 L 24 2 C 27.601562 2 26.398438 3 28.800781 3 Z M 31 3 "/>
<path style=" stroke:none;fill-rule:nonzero;fill:rgb(50.196081%,35.294119%,14.901961%);fill-opacity:1;" d="M 6 26 L 9 26 L 9 31 L 6 31 Z M 11 26 L 14 26 L 14 31 L 11 31 Z M 11 34 L 14 34 L 14 39 L 11 39 Z M 6 34 L 9 34 L 9 39 L 6 39 Z M 34 26 L 37 26 L 37 31 L 34 31 Z M 39 26 L 42 26 L 42 31 L 39 31 Z M 39 34 L 42 34 L 42 39 L 39 39 Z M 34 34 L 37 34 L 37 39 L 34 39 Z M 34 34 "/>
<path style=" stroke:none;fill-rule:nonzero;fill:rgb(0%,47.450981%,41.960785%);fill-opacity:1;" d="M 3 17 L 45 17 L 45 23 L 3 23 Z M 3 17 "/>
<path style=" stroke:none;fill-rule:nonzero;fill:rgb(100%,71.764708%,30.19608%);fill-opacity:1;" d="M 24 9.5 L 17 16.5 L 17 42 L 31 42 L 31 16.5 Z M 24 9.5 "/>
<path style=" stroke:none;fill-rule:nonzero;fill:rgb(98.039216%,98.039216%,98.039216%);fill-opacity:1;" d="M 24 19 C 21.238281 19 19 21.238281 19 24 C 19 26.761719 21.238281 29 24 29 C 26.761719 29 29 26.761719 29 24 C 29 21.238281 26.761719 19 24 19 Z M 24 19 "/>
<path style=" stroke:none;fill-rule:nonzero;fill:rgb(47.450981%,33.333334%,28.235295%);fill-opacity:1;" d="M 26 25 L 24 25 C 23.398438 25 23 24.601562 23 24 L 23 22 C 23 21.398438 23.398438 21 24 21 C 24.601562 21 25 21.398438 25 22 L 25 23 L 26 23 C 26.601562 23 27 23.398438 27 24 C 27 24.601562 26.601562 25 26 25 Z M 26 25 "/>
<path style=" stroke:none;fill-rule:nonzero;fill:rgb(30.19608%,71.372551%,67.450982%);fill-opacity:1;" d="M 24 8 L 15 17 L 15 19.898438 L 24 10.898438 L 33 19.898438 L 33 17 Z M 24 8 "/>
<path style=" stroke:none;fill-rule:nonzero;fill:rgb(50.196081%,35.294119%,14.901961%);fill-opacity:1;" d="M 24 32 C 22.300781 32 21 33.300781 21 35 C 21 36.699219 21 42 21 42 L 27 42 C 27 42 27 36.699219 27 35 C 27 33.300781 25.699219 32 24 32 Z M 24 32 "/>
</g>
</svg>
